<svg width="90" height="90" viewBox="0 0 90 90" fill="none" xmlns="http://www.w3.org/2000/svg">
<rect width="90" height="90" fill="#FDF4F1"/>
<path fill-rule="evenodd" clip-rule="evenodd" d="M54.792 34.8255C54.864 34.9514 54.99 35.0413 55.152 35.0413C59.472 35.0413 63 38.5654 63 42.8806V53.5607C63 57.8759 59.472 61.4 55.152 61.4H34.848C30.51 61.4 27 57.8759 27 53.5607V42.8806C27 38.5654 30.51 35.0413 34.848 35.0413C34.992 35.0413 35.136 34.9694 35.19 34.8255L35.298 34.6098C35.36 34.4792 35.4237 34.3451 35.4884 34.2089C35.9489 33.2389 36.4583 32.1659 36.774 31.5352C37.602 29.917 39.006 29.018 40.752 29H49.23C50.976 29.018 52.398 29.917 53.226 31.5352C53.5095 32.1016 53.9414 33.0139 54.3577 33.8932C54.4436 34.0746 54.5289 34.2547 54.612 34.43L54.792 34.8255ZM53.4781 41.7302C53.4781 42.6292 54.1981 43.3484 55.0982 43.3484C55.9981 43.3484 56.7361 42.6292 56.7361 41.7302C56.7361 40.8312 55.9981 40.094 55.0982 40.094C54.1981 40.094 53.4781 40.8312 53.4781 41.7302ZM41.8858 44.5175C42.7318 43.6724 43.8298 43.2229 44.9998 43.2229C46.1698 43.2229 47.2678 43.6724 48.0958 44.4995C48.9238 45.3266 49.3738 46.4233 49.3738 47.592C49.3558 50.0014 47.4118 51.9612 44.9998 51.9612C43.8298 51.9612 42.7318 51.5117 41.9038 50.6846C41.0758 49.8575 40.6258 48.7607 40.6258 47.592V47.5741C40.6078 46.4413 41.0578 45.3445 41.8858 44.5175ZM49.9862 52.5904C48.7082 53.8669 46.9442 54.6581 45.0002 54.6581C43.1102 54.6581 41.3462 53.9209 39.9962 52.5904C38.6642 51.2418 37.9262 49.4798 37.9262 47.5919C37.9082 45.722 38.6462 43.9599 39.9782 42.6114C41.3282 41.2629 43.1102 40.5258 45.0002 40.5258C46.8902 40.5258 48.6722 41.2629 50.0042 42.5935C51.3362 43.942 52.0742 45.722 52.0742 47.5919C52.0562 49.5517 51.2642 51.3138 49.9862 52.5904Z" fill="#FF914A"/>
</svg>
