<svg width="24" height="24" viewBox="0 0 24 24" fill="none" xmlns="http://www.w3.org/2000/svg">
<rect width="24" height="24" fill="#FDF4F1"/>
<path fill-rule="evenodd" clip-rule="evenodd" d="M14.9007 9.05958C14.922 9.09687 14.9593 9.12351 15.0073 9.12351C16.2873 9.12351 17.3327 10.1677 17.3327 11.4463V14.6107C17.3327 15.8893 16.2873 16.9335 15.0073 16.9335H8.99135C7.70602 16.9335 6.66602 15.8893 6.66602 14.6107V11.4463C6.66602 10.1677 7.70602 9.12351 8.99135 9.12351C9.03402 9.12351 9.07668 9.1022 9.09268 9.05958L9.12468 8.99565C9.14307 8.95694 9.16195 8.91718 9.18111 8.87682C9.31755 8.58944 9.46849 8.27151 9.56202 8.08466C9.80735 7.60519 10.2233 7.33882 10.7407 7.3335H13.2527C13.77 7.33882 14.1913 7.60519 14.4367 8.08466C14.5207 8.25247 14.6487 8.52277 14.772 8.7833C14.7975 8.83707 14.8227 8.89042 14.8473 8.94237L14.9007 9.05958ZM14.5112 11.1052C14.5112 11.3716 14.7246 11.5847 14.9912 11.5847C15.2579 11.5847 15.4766 11.3716 15.4766 11.1052C15.4766 10.8389 15.2579 10.6204 14.9912 10.6204C14.7246 10.6204 14.5112 10.8389 14.5112 11.1052ZM11.0764 11.9311C11.3271 11.6807 11.6524 11.5475 11.9991 11.5475C12.3458 11.5475 12.6711 11.6807 12.9164 11.9258C13.1618 12.1708 13.2951 12.4958 13.2951 12.8421C13.2898 13.556 12.7138 14.1366 11.9991 14.1366C11.6524 14.1366 11.3271 14.0035 11.0818 13.7584C10.8364 13.5133 10.7031 13.1884 10.7031 12.8421V12.8368C10.6978 12.5011 10.8311 12.1762 11.0764 11.9311ZM13.4766 14.3231C13.0979 14.7013 12.5753 14.9357 11.9993 14.9357C11.4393 14.9357 10.9166 14.7173 10.5166 14.3231C10.1219 13.9235 9.90325 13.4014 9.90325 12.842C9.89792 12.288 10.1166 11.7659 10.5113 11.3664C10.9113 10.9668 11.4393 10.7484 11.9993 10.7484C12.5593 10.7484 13.0873 10.9668 13.4819 11.361C13.8766 11.7606 14.0953 12.288 14.0953 12.842C14.0899 13.4227 13.8553 13.9448 13.4766 14.3231Z" fill="#FF914A"/>
</svg>
