<svg width="36" height="36" viewBox="0 0 36 36" fill="none" xmlns="http://www.w3.org/2000/svg">
<rect width="36" height="36" fill="#FDF4F1"/>
<path fill-rule="evenodd" clip-rule="evenodd" d="M22.352 13.5891C22.384 13.6451 22.44 13.685 22.512 13.685C24.432 13.685 26 15.2513 26 17.1691V21.9159C26 23.8337 24.432 25.4 22.512 25.4H13.488C11.56 25.4 10 23.8337 10 21.9159V17.1691C10 15.2513 11.56 13.685 13.488 13.685C13.552 13.685 13.616 13.6531 13.64 13.5891L13.688 13.4932C13.7156 13.4352 13.7439 13.3756 13.7726 13.3151C13.9773 12.884 14.2037 12.407 14.344 12.1267C14.712 11.4075 15.336 11.008 16.112 11H19.88C20.656 11.008 21.288 11.4075 21.656 12.1267C21.782 12.3785 21.974 12.784 22.159 13.1748C22.1972 13.2555 22.2351 13.3354 22.272 13.4133L22.352 13.5891ZM21.768 16.6579C21.768 17.0575 22.088 17.3771 22.488 17.3771C22.888 17.3771 23.216 17.0575 23.216 16.6579C23.216 16.2584 22.888 15.9307 22.488 15.9307C22.088 15.9307 21.768 16.2584 21.768 16.6579ZM16.616 17.8965C16.992 17.5209 17.48 17.3212 18 17.3212C18.52 17.3212 19.008 17.5209 19.376 17.8885C19.744 18.2561 19.944 18.7436 19.944 19.263C19.936 20.3338 19.072 21.2049 18 21.2049C17.48 21.2049 16.992 21.0051 16.624 20.6375C16.256 20.2699 16.056 19.7824 16.056 19.263V19.255C16.048 18.7516 16.248 18.2641 16.616 17.8965ZM20.216 21.4845C19.648 22.0519 18.864 22.4035 18 22.4035C17.16 22.4035 16.376 22.0759 15.776 21.4845C15.184 20.8852 14.856 20.1021 14.856 19.263C14.848 18.4319 15.176 17.6488 15.768 17.0495C16.368 16.4501 17.16 16.1225 18 16.1225C18.84 16.1225 19.632 16.4501 20.224 17.0415C20.816 17.6408 21.144 18.4319 21.144 19.263C21.136 20.134 20.784 20.9172 20.216 21.4845Z" fill="#FF914A"/>
</svg>
