<svg width="20" height="20" viewBox="0 0 20 20" fill="none" xmlns="http://www.w3.org/2000/svg">
<path d="M10.0001 6.32715V13.6535" stroke="#111111" stroke-width="1.5" stroke-linecap="round" stroke-linejoin="round"/>
<path d="M13.6666 9.99039H6.33325" stroke="#111111" stroke-width="1.5" stroke-linecap="round" stroke-linejoin="round"/>
<path d="M5.31429 0.75H14.6857C16.1386 0.75 17.2603 1.25751 18.0225 2.07623C18.7904 2.90101 19.25 4.1034 19.25 5.58516V14.4148C19.25 15.8966 18.7904 17.099 18.0225 17.9238C17.2603 18.7425 16.1386 19.25 14.6857 19.25H5.31429C3.86142 19.25 2.73974 18.7425 1.9775 17.9238C1.20962 17.099 0.75 15.8966 0.75 14.4148V5.58516C0.75 4.10432 1.21146 2.90181 1.98074 2.07659C2.74458 1.25721 3.86666 0.75 5.31429 0.75Z" stroke="#111111" stroke-width="1.5" stroke-linecap="round" stroke-linejoin="round"/>
</svg>
