<svg width="24" height="24" viewBox="0 0 24 24" fill="none" xmlns="http://www.w3.org/2000/svg">
<circle cx="11.9995" cy="12" r="12" fill="#FDF4F1"/>
<path fill-rule="evenodd" clip-rule="evenodd" d="M14.9012 9.05958C14.9225 9.09687 14.9598 9.12351 15.0078 9.12351C16.2878 9.12351 17.3332 10.1677 17.3332 11.4463V14.6107C17.3332 15.8893 16.2878 16.9335 15.0078 16.9335H8.99184C7.7065 16.9335 6.6665 15.8893 6.6665 14.6107V11.4463C6.6665 10.1677 7.7065 9.12351 8.99184 9.12351C9.0345 9.12351 9.07717 9.1022 9.09317 9.05958L9.12517 8.99565C9.14356 8.95694 9.16244 8.91718 9.1816 8.87682C9.31804 8.58944 9.46897 8.27151 9.5625 8.08466C9.80784 7.60519 10.2238 7.33882 10.7412 7.3335H13.2532C13.7705 7.33882 14.1918 7.60519 14.4372 8.08466C14.5212 8.25247 14.6491 8.52277 14.7725 8.7833C14.7979 8.83707 14.8232 8.89042 14.8478 8.94237L14.9012 9.05958ZM14.5117 11.1052C14.5117 11.3716 14.7251 11.5847 14.9917 11.5847C15.2584 11.5847 15.4771 11.3716 15.4771 11.1052C15.4771 10.8389 15.2584 10.6204 14.9917 10.6204C14.7251 10.6204 14.5117 10.8389 14.5117 11.1052ZM11.0769 11.9311C11.3276 11.6807 11.6529 11.5475 11.9996 11.5475C12.3463 11.5475 12.6716 11.6807 12.9169 11.9258C13.1623 12.1708 13.2956 12.4958 13.2956 12.8421C13.2903 13.556 12.7143 14.1366 11.9996 14.1366C11.6529 14.1366 11.3276 14.0035 11.0823 13.7584C10.8369 13.5133 10.7036 13.1884 10.7036 12.8421V12.8368C10.6983 12.5011 10.8316 12.1762 11.0769 11.9311ZM13.4771 14.3231C13.0984 14.7013 12.5757 14.9357 11.9997 14.9357C11.4397 14.9357 10.9171 14.7173 10.5171 14.3231C10.1224 13.9235 9.90374 13.4014 9.90374 12.842C9.89841 12.288 10.1171 11.7659 10.5117 11.3664C10.9117 10.9668 11.4397 10.7484 11.9997 10.7484C12.5597 10.7484 13.0877 10.9668 13.4824 11.361C13.8771 11.7606 14.0957 12.288 14.0957 12.842C14.0904 13.4227 13.8557 13.9448 13.4771 14.3231Z" fill="#FF914A"/>
</svg>
