<svg width="20" height="20" viewBox="0 0 20 20" fill="none" xmlns="http://www.w3.org/2000/svg">
<path fill-rule="evenodd" clip-rule="evenodd" d="M14.3347 0.75H5.66573C2.64473 0.75 0.750732 2.889 0.750732 5.916V14.084C0.750732 17.111 2.63473 19.25 5.66573 19.25H14.3337C17.3647 19.25 19.2507 17.111 19.2507 14.084V5.916C19.2507 2.889 17.3647 0.75 14.3347 0.75Z" stroke="#111111" stroke-width="1.5" stroke-linecap="round" stroke-linejoin="round"/>
<path d="M5.52075 11.1968C4.85975 11.1968 4.32275 10.6598 4.32275 9.99976C4.32275 9.33976 4.85975 8.80176 5.52075 8.80176C6.18175 8.80176 6.71875 9.33976 6.71875 9.99976C6.71875 10.6598 6.18175 11.1968 5.52075 11.1968" fill="#111111"/>
<path d="M10.0002 11.1968C9.33925 11.1968 8.80225 10.6598 8.80225 9.99976C8.80225 9.33976 9.33925 8.80176 10.0002 8.80176C10.6612 8.80176 11.1982 9.33976 11.1982 9.99976C11.1982 10.6598 10.6612 11.1968 10.0002 11.1968" fill="#111111"/>
<path d="M14.4792 11.1968C13.8182 11.1968 13.2812 10.6598 13.2812 9.99976C13.2812 9.33976 13.8182 8.80176 14.4792 8.80176C15.1402 8.80176 15.6772 9.33976 15.6772 9.99976C15.6772 10.6598 15.1402 11.1968 14.4792 11.1968" fill="#111111"/>
</svg>
