<svg width="22" height="22" viewBox="0 0 22 22" fill="none" xmlns="http://www.w3.org/2000/svg">
<path fill-rule="evenodd" clip-rule="evenodd" d="M6.23218 0.0751953C4.38484 0.0751953 2.82674 0.734291 1.73414 1.90648C0.646996 3.07282 0.0756836 4.68722 0.0756836 6.5078V15.4926C0.0756836 17.3121 0.643625 18.9267 1.72964 20.0935C2.82133 21.2664 4.37988 21.9252 6.23218 21.9252H15.767C17.6193 21.9252 19.1783 21.2665 20.2705 20.0937C21.3571 18.9269 21.9257 17.3123 21.9257 15.4926V6.5078C21.9257 4.68805 21.3571 3.07352 20.2706 1.90676C19.1786 0.733968 17.6199 0.0751953 15.7681 0.0751953H6.23218ZM1.57568 6.5078C1.57568 4.99867 2.04607 3.77177 2.8314 2.92924C3.61128 2.09255 4.75643 1.5752 6.23218 1.5752H15.7681C17.2493 1.5752 18.3944 2.09287 19.1729 2.92895C19.957 3.77107 20.4257 4.99784 20.4257 6.5078V15.4926C20.4257 17.0025 19.957 18.2293 19.1728 19.0714C18.3942 19.9075 17.2488 20.4252 15.767 20.4252H6.23218C4.75038 20.4252 3.60569 19.9075 2.82765 19.0716C2.04394 18.2295 1.57568 17.0028 1.57568 15.4926V6.5078Z" fill="black"/>
<path d="M6.07293 12.3161C5.34583 12.3161 4.75513 11.7254 4.75513 10.9994C4.75513 10.2734 5.34583 9.68164 6.07293 9.68164C6.80003 9.68164 7.39073 10.2734 7.39073 10.9994C7.39073 11.7254 6.80003 12.3161 6.07293 12.3161Z" fill="#111111"/>
<path d="M11.0004 12.3161C10.2733 12.3161 9.68257 11.7254 9.68257 10.9994C9.68257 10.2734 10.2733 9.68164 11.0004 9.68164C11.7275 9.68164 12.3182 10.2734 12.3182 10.9994C12.3182 11.7254 11.7275 12.3161 11.0004 12.3161Z" fill="#111111"/>
<path d="M15.9273 12.3161C15.2002 12.3161 14.6095 11.7254 14.6095 10.9994C14.6095 10.2734 15.2002 9.68164 15.9273 9.68164C16.6544 9.68164 17.2451 10.2734 17.2451 10.9994C17.2451 11.7254 16.6544 12.3161 15.9273 12.3161Z" fill="#111111"/>
</svg>
