<svg width="22" height="22" viewBox="0 0 22 22" fill="none" xmlns="http://www.w3.org/2000/svg">
<path fill-rule="evenodd" clip-rule="evenodd" d="M6.1565 0C4.30916 0 2.75106 0.659096 1.65846 1.83129C0.571313 2.99762 0 4.61202 0 6.4326V15.4174C0 17.2369 0.567942 18.8515 1.65396 20.0183C2.74565 21.1912 4.3042 21.85 6.1565 21.85H15.6913C17.5436 21.85 19.1026 21.1913 20.1948 20.0185C21.2814 18.8517 21.85 17.2371 21.85 15.4174V6.4326C21.85 4.61285 21.2814 2.99832 20.195 1.83157C19.1029 0.658773 17.5442 0 15.6924 0H6.1565ZM1.5 6.4326C1.5 4.92348 1.97039 3.69658 2.75572 2.85404C3.53559 2.01735 4.68074 1.5 6.1565 1.5H15.6924C17.1736 1.5 18.3187 2.01768 19.0972 2.85376C19.8813 3.69588 20.35 4.92265 20.35 6.4326V15.4174C20.35 16.9274 19.8813 18.1541 19.0971 18.9962C18.3185 19.8323 17.1731 20.35 15.6913 20.35H6.1565C4.6747 20.35 3.53 19.8323 2.75197 18.9964C1.96826 18.1543 1.5 16.9276 1.5 15.4174V6.4326Z" fill="black"/>
<path d="M11.7499 7.32715C11.7499 6.91293 11.4141 6.57715 10.9999 6.57715C10.5857 6.57715 10.2499 6.91293 10.2499 7.32715V10.2403H7.33325C6.91904 10.2403 6.58325 10.5761 6.58325 10.9903C6.58325 11.4045 6.91904 11.7403 7.33325 11.7403H10.2499V14.6535C10.2499 15.0677 10.5857 15.4035 10.9999 15.4035C11.4141 15.4035 11.7499 15.0677 11.7499 14.6535V11.7403H14.6666C15.0808 11.7403 15.4166 11.4045 15.4166 10.9903C15.4166 10.5761 15.0808 10.2403 14.6666 10.2403H11.7499V7.32715Z" fill="black"/>
</svg>
