<svg xmlns="http://www.w3.org/2000/svg">
    <!-- logo__big -->
    <symbol viewBox="0 0 77 25" id="logo__big">
        <path fill-rule="evenodd" clip-rule="evenodd" d="M8.96252 4.08519C8.81399 4.11749 8.63828 4.18776 8.49342 4.27276C8.34559 4.35953 7.97636 4.7296 7.8579 4.90974C7.31165 5.74034 7.14068 7.0062 7.41278 8.20517C7.58002 8.94209 7.93359 9.64752 8.3599 10.0948C8.58077 10.3266 8.78484 10.4799 9.03998 10.6056C9.29425 10.731 9.48943 10.7801 9.73101 10.7798C10.155 10.7791 10.5332 10.6038 10.8721 10.2508C11.1177 9.995 11.2808 9.73471 11.4294 9.36144C12.033 7.8448 11.636 5.70635 10.5557 4.65546C10.0752 4.18807 9.47593 3.97355 8.96252 4.08519ZM15.0402 4.43472C14.6593 4.52127 14.3162 4.70497 13.9718 5.00685C13.582 5.34852 13.1602 6.00506 12.93 6.62836C12.4071 8.04465 12.5411 9.61611 13.2577 10.4711C13.6928 10.9902 14.2269 11.1655 14.8728 11.0012C15.376 10.8732 15.9638 10.3939 16.3651 9.78466C16.7397 9.21581 17.0057 8.49223 17.11 7.7582C17.1597 7.40905 17.16 6.73761 17.1107 6.43674C17.0429 6.02262 16.9608 5.76045 16.8012 5.44808C16.5522 4.96066 16.196 4.62852 15.7615 4.47854C15.5543 4.40704 15.2448 4.38823 15.0402 4.43472ZM4.45664 8.8281C4.43527 8.83307 4.36968 8.84648 4.31089 8.85791C4.14513 8.89015 3.87124 9.03164 3.73468 9.15557C3.43245 9.42987 3.20911 9.86659 3.14426 10.31C3.11455 10.5133 3.12918 11.0005 3.17211 11.2367C3.36463 12.2959 4.04279 13.3925 4.90075 14.0322C5.36132 14.3756 5.71687 14.5402 6.16445 14.6175C6.73944 14.7167 7.25689 14.5457 7.58498 14.1479C7.72923 13.9731 7.89288 13.6404 7.95596 13.3938C8.11825 12.7595 7.98031 11.9046 7.58595 11.1007C6.94283 9.78973 5.778 8.86924 4.70927 8.82744C4.5917 8.82283 4.47802 8.82314 4.45664 8.8281ZM19.0607 9.68366C19.034 9.68839 18.9596 9.70164 18.8955 9.7131C18.6968 9.74861 18.3224 9.88054 18.0997 9.99355C17.7097 10.1914 17.3711 10.4414 17.0138 10.7952C15.9148 11.8837 15.4275 13.3708 15.8358 14.3905C16.0005 14.8019 16.3436 15.1172 16.7384 15.22C17.5893 15.4416 18.6284 15.061 19.5109 14.2046C19.9232 13.8046 20.2144 13.4058 20.4712 12.8899C20.9203 11.9874 20.9871 11.1265 20.6606 10.4507C20.586 10.2965 20.5448 10.24 20.4034 10.0985C20.267 9.9622 20.2036 9.91502 20.0705 9.85091C19.8163 9.72844 19.6553 9.69008 19.3619 9.68201C19.223 9.6782 19.0874 9.67894 19.0607 9.68366ZM11.5852 12.3748C11.2661 12.4057 10.9162 12.5236 10.5907 12.71C10.1628 12.9549 9.79992 13.2752 9.21364 13.9252C8.44608 14.7762 8.22515 15.0037 7.6534 15.5315C6.73287 16.3815 6.3301 16.8655 6.02226 17.4916C5.7933 17.9573 5.70437 18.3061 5.70451 18.738C5.70474 19.4711 5.99523 19.9707 6.59429 20.2682C6.89586 20.4179 7.12358 20.4678 7.49794 20.4662C8.00233 20.464 8.34837 20.3672 9.26636 19.9716C10.2853 19.5326 10.667 19.4169 11.1709 19.3945C11.7162 19.3704 12.2488 19.4925 12.8324 19.7755C12.9606 19.8377 13.2973 20.0217 13.5805 20.1843C14.6108 20.776 15.0601 20.9436 15.6157 20.9436C16.3723 20.9436 16.9664 20.5677 17.2222 19.9269C17.3205 19.6809 17.3569 19.4687 17.358 19.1363C17.3591 18.7895 17.3194 18.555 17.2035 18.2219C16.9556 17.5098 16.5764 16.9183 15.7986 16.0307C15.2789 15.4377 15.0765 15.1785 14.5765 14.4653C14.1729 13.8897 13.9307 13.5694 13.722 13.3355C13.2138 12.766 12.6318 12.4399 12.0064 12.3742C11.8037 12.3529 11.8117 12.3529 11.5852 12.3748Z" fill="#FF914A"/>
        <path d="M29.5438 17.5V6.172H33.9598C34.8238 6.172 35.5758 6.30533 36.2158 6.572C36.8664 6.828 37.3678 7.244 37.7198 7.82C38.0718 8.38533 38.2478 9.14267 38.2478 10.092C38.2478 10.9773 38.0504 11.7187 37.6558 12.316C37.2718 12.9133 36.7438 13.3613 36.0718 13.66C35.3998 13.948 34.6371 14.092 33.7838 14.092H31.8318V17.5H29.5438ZM31.8318 12.044H33.7518C34.4344 12.044 34.9731 11.884 35.3678 11.564C35.7731 11.2333 35.9758 10.7373 35.9758 10.076C35.9758 9.48933 35.8051 9.04667 35.4638 8.748C35.1331 8.44933 34.5998 8.3 33.8638 8.3H31.8318V12.044ZM43.3766 17.612C42.4913 17.612 41.7393 17.436 41.1206 17.084C40.502 16.732 40.0273 16.236 39.6966 15.596C39.366 14.9453 39.2006 14.188 39.2006 13.324C39.2006 12.4493 39.3713 11.6867 39.7126 11.036C40.054 10.3747 40.534 9.85733 41.1526 9.484C41.782 9.11067 42.5233 8.924 43.3766 8.924C44.0166 8.924 44.5766 9.03067 45.0566 9.244C45.5473 9.45733 45.958 9.756 46.2886 10.14C46.63 10.524 46.8806 10.972 47.0406 11.484C47.2113 11.9853 47.2913 12.5293 47.2806 13.116C47.2806 13.2653 47.2753 13.4093 47.2646 13.548C47.254 13.6867 47.2326 13.8253 47.2006 13.964H41.4246C41.4566 14.284 41.5473 14.5773 41.6966 14.844C41.846 15.1107 42.054 15.324 42.3206 15.484C42.598 15.6333 42.9393 15.708 43.3446 15.708C43.6113 15.708 43.8566 15.6813 44.0806 15.628C44.3046 15.564 44.4966 15.468 44.6566 15.34C44.8166 15.212 44.9286 15.0627 44.9926 14.892H47.2006C47.062 15.5213 46.8006 16.0387 46.4166 16.444C46.0433 16.8493 45.59 17.148 45.0566 17.34C44.5233 17.5213 43.9633 17.612 43.3766 17.612ZM41.4726 12.396H45.1366C45.126 12.108 45.0513 11.8413 44.9126 11.596C44.7846 11.34 44.5873 11.1373 44.3206 10.988C44.0646 10.828 43.734 10.748 43.3286 10.748C42.9233 10.748 42.582 10.828 42.3046 10.988C42.038 11.148 41.8353 11.356 41.6966 11.612C41.5686 11.8573 41.494 12.1187 41.4726 12.396ZM52.5477 17.5C51.8438 17.5 51.2518 17.4147 50.7718 17.244C50.3024 17.0733 49.9451 16.7853 49.6998 16.38C49.4651 15.964 49.3478 15.3987 49.3478 14.684V11.068H48.0998V9.068H49.3478V6.812H51.5878V9.068H53.4278V11.068H51.5878V14.364C51.5878 14.716 51.6518 14.9933 51.7798 15.196C51.9078 15.3987 52.1958 15.5 52.6438 15.5H53.3478V17.5H52.5477ZM54.5831 20.652V9.068H56.6791L56.7911 10.124C57.1325 9.708 57.5218 9.404 57.9591 9.212C58.4071 9.02 58.8978 8.924 59.4311 8.924C60.2631 8.924 60.9511 9.116 61.4951 9.5C62.0391 9.884 62.4445 10.4067 62.7111 11.068C62.9885 11.7187 63.1271 12.4493 63.1271 13.26C63.1271 14.092 62.9831 14.8387 62.6951 15.5C62.4178 16.1507 61.9965 16.668 61.4311 17.052C60.8658 17.4253 60.1618 17.612 59.3191 17.612C58.9565 17.612 58.6151 17.5693 58.2951 17.484C57.9751 17.3987 57.6925 17.2867 57.4471 17.148C57.2018 16.9987 56.9938 16.8333 56.8231 16.652V20.652H54.5831ZM58.9351 15.596C59.4365 15.596 59.8311 15.484 60.1191 15.26C60.4071 15.036 60.6098 14.7533 60.7271 14.412C60.8445 14.06 60.9031 13.6973 60.9031 13.324C60.9031 12.9187 60.8391 12.5347 60.7111 12.172C60.5831 11.8093 60.3698 11.5213 60.0711 11.308C59.7831 11.084 59.3885 10.972 58.8871 10.972C58.4391 10.972 58.0605 11.084 57.7511 11.308C57.4418 11.5213 57.2071 11.804 57.0471 12.156C56.8871 12.508 56.8071 12.8867 56.8071 13.292C56.8071 13.6973 56.8818 14.076 57.0311 14.428C57.1911 14.78 57.4258 15.0627 57.7351 15.276C58.0551 15.4893 58.4551 15.596 58.9351 15.596ZM64.5675 17.5V9.068H66.8075V17.5H64.5675ZM65.6875 8.22C65.2715 8.22 64.9355 8.09733 64.6795 7.852C64.4235 7.596 64.2955 7.27067 64.2955 6.876C64.2955 6.46 64.4288 6.124 64.6955 5.868C64.9622 5.612 65.2982 5.484 65.7035 5.484C66.0768 5.484 66.3968 5.612 66.6635 5.868C66.9408 6.11333 67.0795 6.444 67.0795 6.86C67.0795 7.26533 66.9462 7.596 66.6795 7.852C66.4235 8.09733 66.0928 8.22 65.6875 8.22ZM67.7991 17.5L70.7431 13.196L67.9431 9.068H70.5511L72.2151 11.724L73.8471 9.068H76.3751L73.5591 13.244L76.5671 17.5H73.9591L72.1191 14.732L70.2951 17.5H67.7991Z" fill="#FF914A"/>
    </symbol>

    <!-- show password -->
    <symbol viewBox="0 0 24 24" id="password__show">
        <path d="M21.25 9.14969C18.94 5.51969 15.56 3.42969 12 3.42969C10.22 3.42969 8.49 3.94969 6.91 4.91969C5.33 5.89969 3.91 7.32969 2.75 9.14969C1.75 10.7197 1.75 13.2697 2.75 14.8397C5.06 18.4797 8.44 20.5597 12 20.5597C13.78 20.5597 15.51 20.0397 17.09 19.0697C18.67 18.0897 20.09 16.6597 21.25 14.8397C22.25 13.2797 22.25 10.7197 21.25 9.14969ZM12 16.0397C9.76 16.0397 7.96 14.2297 7.96 11.9997C7.96 9.76969 9.76 7.95969 12 7.95969C14.24 7.95969 16.04 9.76969 16.04 11.9997C16.04 14.2297 14.24 16.0397 12 16.0397Z"/>
        <path d="M11.9999 9.13965C10.4299 9.13965 9.1499 10.4196 9.1499 11.9996C9.1499 13.5696 10.4299 14.8496 11.9999 14.8496C13.5699 14.8496 14.8599 13.5696 14.8599 11.9996C14.8599 10.4296 13.5699 9.13965 11.9999 9.13965Z"/>
    </symbol>

    <!-- add photo -->
    <symbol viewBox="0 0 22 22" id="photo__add">
        <path fill-rule="evenodd" clip-rule="evenodd" d="M6.1565 0C4.30916 0 2.75106 0.659096 1.65846 1.83129C0.571313 2.99762 0 4.61202 0 6.4326V15.4174C0 17.2369 0.567942 18.8515 1.65396 20.0183C2.74565 21.1912 4.3042 21.85 6.1565 21.85H15.6913C17.5436 21.85 19.1026 21.1913 20.1948 20.0185C21.2814 18.8517 21.85 17.2371 21.85 15.4174V6.4326C21.85 4.61285 21.2814 2.99832 20.195 1.83157C19.1029 0.658773 17.5442 0 15.6924 0H6.1565ZM1.5 6.4326C1.5 4.92348 1.97039 3.69658 2.75572 2.85404C3.53559 2.01735 4.68074 1.5 6.1565 1.5H15.6924C17.1736 1.5 18.3187 2.01768 19.0972 2.85376C19.8813 3.69588 20.35 4.92265 20.35 6.4326V15.4174C20.35 16.9274 19.8813 18.1541 19.0971 18.9962C18.3185 19.8323 17.1731 20.35 15.6913 20.35H6.1565C4.6747 20.35 3.53 19.8323 2.75197 18.9964C1.96826 18.1543 1.5 16.9276 1.5 15.4174V6.4326Z"/>
        <path d="M11.7499 7.32715C11.7499 6.91293 11.4141 6.57715 10.9999 6.57715C10.5857 6.57715 10.2499 6.91293 10.2499 7.32715V10.2403H7.33325C6.91904 10.2403 6.58325 10.5761 6.58325 10.9903C6.58325 11.4045 6.91904 11.7403 7.33325 11.7403H10.2499V14.6535C10.2499 15.0677 10.5857 15.4035 10.9999 15.4035C11.4141 15.4035 11.7499 15.0677 11.7499 14.6535V11.7403H14.6666C15.0808 11.7403 15.4166 11.4045 15.4166 10.9903C15.4166 10.5761 15.0808 10.2403 14.6666 10.2403H11.7499V7.32715Z"/>
    </symbol>

    <!-- edit profile -->
    <symbol viewBox="0 0 22 22" id="profile__edit">
        <path fill-rule="evenodd" clip-rule="evenodd" d="M6.23218 0.0751953C4.38484 0.0751953 2.82674 0.734291 1.73414 1.90648C0.646996 3.07282 0.0756836 4.68722 0.0756836 6.5078V15.4926C0.0756836 17.3121 0.643625 18.9267 1.72964 20.0935C2.82133 21.2664 4.37988 21.9252 6.23218 21.9252H15.767C17.6193 21.9252 19.1783 21.2665 20.2705 20.0937C21.3571 18.9269 21.9257 17.3123 21.9257 15.4926V6.5078C21.9257 4.68805 21.3571 3.07352 20.2706 1.90676C19.1786 0.733968 17.6199 0.0751953 15.7681 0.0751953H6.23218ZM1.57568 6.5078C1.57568 4.99867 2.04607 3.77177 2.8314 2.92924C3.61128 2.09255 4.75643 1.5752 6.23218 1.5752H15.7681C17.2493 1.5752 18.3944 2.09287 19.1729 2.92895C19.957 3.77107 20.4257 4.99784 20.4257 6.5078V15.4926C20.4257 17.0025 19.957 18.2293 19.1728 19.0714C18.3942 19.9075 17.2488 20.4252 15.767 20.4252H6.23218C4.75038 20.4252 3.60569 19.9075 2.82765 19.0716C2.04394 18.2295 1.57568 17.0028 1.57568 15.4926V6.5078Z"/>
        <path d="M6.07293 12.3161C5.34583 12.3161 4.75513 11.7254 4.75513 10.9994C4.75513 10.2734 5.34583 9.68164 6.07293 9.68164C6.80003 9.68164 7.39073 10.2734 7.39073 10.9994C7.39073 11.7254 6.80003 12.3161 6.07293 12.3161Z"/>
        <path d="M11.0004 12.3161C10.2733 12.3161 9.68257 11.7254 9.68257 10.9994C9.68257 10.2734 10.2733 9.68164 11.0004 9.68164C11.7275 9.68164 12.3182 10.2734 12.3182 10.9994C12.3182 11.7254 11.7275 12.3161 11.0004 12.3161Z"/>
        <path d="M15.9273 12.3161C15.2002 12.3161 14.6095 11.7254 14.6095 10.9994C14.6095 10.2734 15.2002 9.68164 15.9273 9.68164C16.6544 9.68164 17.2451 10.2734 17.2451 10.9994C17.2451 11.7254 16.6544 12.3161 15.9273 12.3161Z"/>
    </symbol>

    <!-- like post -->
    <symbol viewBox="0 0 19 18" id="post__like-inside">
        <path fill-rule="evenodd" clip-rule="evenodd" d="M9.27359 17.3877C7.21722 16.1222 5.30421 14.6327 3.5688 12.9459C2.34873 11.7312 1.4199 10.2503 0.85346 8.61663C-0.165864 5.44761 1.02477 1.81968 4.35685 0.74602C6.10805 0.182255 8.02064 0.504472 9.4963 1.61187C10.9725 0.505821 12.8844 0.183717 14.6357 0.74602C17.9678 1.81968 19.167 5.44761 18.1477 8.61663C17.5813 10.2503 16.6524 11.7312 15.4324 12.9459C13.697 14.6327 11.7839 16.1222 9.72757 17.3877L9.50486 17.5263L9.27359 17.3877Z"/>
    </symbol>
    <symbol viewBox="0 0 19 18" id="post__like-outside">
        <path fill-rule="evenodd" clip-rule="evenodd" d="M4.07125 0.287339C5.91939 -0.307387 7.93843 0.0324563 9.49605 1.2014C11.0542 0.0344094 13.0722 -0.305434 14.9209 0.287339C18.4384 1.42113 19.7041 5.25023 18.6279 8.59593C18.0302 10.3196 17.0498 11.883 15.7617 13.1653C13.9301 14.9455 11.9106 16.5178 9.74019 17.8537L9.50533 18.0002L9.26119 17.8537C7.09029 16.5178 5.07125 14.9455 3.23922 13.1653C1.95162 11.883 0.971149 10.3196 0.373004 8.59593C-0.702679 5.25023 0.553668 1.42113 4.07125 0.287339ZM11.7241 1.71605C12.6044 1.43382 13.5605 1.42699 14.4619 1.71605C16.9668 2.52367 18.0947 5.33128 17.205 8.12035C16.6821 9.62132 15.8281 10.9807 14.7099 12.0959C13.1132 13.6477 11.3681 15.0325 9.50045 16.2327C7.63326 15.0325 5.88814 13.6477 4.29146 12.0959C3.17281 10.9807 2.31929 9.62132 1.79586 8.12035C0.905231 5.3264 2.02877 2.52171 4.53121 1.71507C5.43355 1.42503 6.39009 1.43187 7.27095 1.71507C7.74068 1.86644 8.18892 2.09593 8.59566 2.4016C9.12886 2.80199 9.86226 2.80199 10.3955 2.40257C10.8037 2.09691 11.2529 1.86742 11.7241 1.71605Z"/>
    </symbol>

    <!-- subscribe user -->
    <symbol viewBox="0 0 22 22" id="user__subscribe1">
        <path d="M19.7491 7.33477C19.7491 6.87913 19.3798 6.50977 18.9241 6.50977C18.4685 6.50977 18.0991 6.87913 18.0991 7.33477V11.7458C18.0991 12.2014 18.4685 12.5708 18.9241 12.5708C19.3798 12.5708 19.7491 12.2014 19.7491 11.7458V7.33477Z"/>
    </symbol>
    <symbol viewBox="0 0 22 22" id="user__subscribe2">
        <path fill-rule="evenodd" clip-rule="evenodd" d="M8.56749 0C5.3688 0.0514363 2.81494 2.63616 2.81494 5.84902C2.81494 9.09315 5.42061 11.6988 8.66474 11.6988C11.9101 11.6988 14.5145 9.09304 14.5145 5.84902C14.5145 2.63628 11.9619 0.0514375 8.76202 0H8.56749ZM4.46494 5.84902C4.46494 3.51517 6.33176 1.64922 8.66474 1.64922C10.9987 1.64922 12.8645 3.51505 12.8645 5.84902C12.8645 8.182 10.9986 10.0488 8.66474 10.0488C6.33188 10.0488 4.46494 8.18188 4.46494 5.84902Z"/>
        <path d="M16.6756 8.71523C16.22 8.71523 15.8506 9.0846 15.8506 9.54023C15.8506 9.99587 16.22 10.3652 16.6756 10.3652H21.1746C21.6302 10.3652 21.9996 9.99587 21.9996 9.54023C21.9996 9.0846 21.6302 8.71523 21.1746 8.71523H16.6756Z"/>
        <path fill-rule="evenodd" clip-rule="evenodd" d="M8.6647 13.7004C6.53304 13.7004 4.4612 13.8584 2.89696 14.3828C2.11065 14.6464 1.39132 15.0223 0.861181 15.5726C0.311461 16.1432 0 16.8673 0 17.7253C0 18.5813 0.308724 19.3056 0.855225 19.8783C1.38271 20.4311 2.09941 20.8106 2.88492 21.0777C4.44729 21.6091 6.52003 21.7733 8.6647 21.7733C10.7965 21.7733 12.8683 21.615 14.4325 21.0904C15.2188 20.8267 15.9381 20.4509 16.4682 19.9007C17.0179 19.3301 17.3294 18.6062 17.3294 17.7484C17.3294 16.8924 17.0207 16.1681 16.4742 15.5954C15.9467 15.0426 15.23 14.6631 14.4445 14.3959C12.8821 13.8646 10.8094 13.7004 8.6647 13.7004ZM1.65 17.7253C1.65 17.3029 1.78995 16.9868 2.04949 16.7173C2.3286 16.4276 2.77637 16.1635 3.42144 15.9473C4.71995 15.5119 6.56796 15.3504 8.6647 15.3504C10.7715 15.3504 12.6186 15.5178 13.9132 15.9581C14.5562 16.1767 15.0023 16.443 15.2805 16.7345C15.5396 17.006 15.6794 17.3245 15.6794 17.7484C15.6794 18.1704 15.5395 18.4864 15.2799 18.7558C15.0008 19.0456 14.553 19.3097 13.9079 19.526C12.6094 19.9615 10.7613 20.1233 8.6647 20.1233C6.55787 20.1233 4.71076 19.9559 3.41616 19.5156C2.77318 19.2969 2.32711 19.0307 2.04895 18.7392C1.7898 18.4676 1.65 18.1491 1.65 17.7253Z"/>
    </symbol>
</svg>