<svg width="28" height="31" viewBox="0 0 28 31" fill="none" xmlns="http://www.w3.org/2000/svg">
<path d="M20.95 15.999C17.0367 16.8052 15.457 18.593 14.8491 22.8529C14.5256 25.1395 14.3641 27.4609 14.1033 30.0228C13.7592 27.386 13.5286 24.9962 13.128 22.6363C12.4455 18.6235 10.7323 16.8146 7.03281 16.1824C4.82506 15.8065 2.60233 15.6149 0.165611 15.3065C2.49301 14.9629 4.62578 14.714 6.7399 14.318C10.7049 13.5755 12.386 11.7219 12.9934 7.41605C13.3169 5.12941 13.4954 2.80786 13.764 0.181419C14.0995 2.8183 14.3202 5.07016 14.6766 7.29263C15.3544 11.6368 17.102 13.482 21.176 14.1277C23.2471 14.4594 25.3336 14.6436 27.702 14.9253C25.2646 15.3255 23.0891 15.5566 20.95 15.999Z" fill="#FF914A"/>
</svg>
